<svg width="60" height="60" viewBox="0 0 60 60" fill="none" xmlns="http://www.w3.org/2000/svg">
<rect width="60" height="60" rx="30" fill="url(#paint0_linear_444_1119)"/>
<path fill-rule="evenodd" clip-rule="evenodd" d="M35.0289 15.6475C39.3173 17.0122 42.7534 20.8002 43.7436 25.2551C44.1774 27.2059 44.0493 30.1284 43.4461 32.0409C42.56 34.8505 40.3435 37.6775 37.8267 39.2076C35.5002 40.6221 32.1302 41.4185 29.8183 41.1004C29.2247 41.0187 28.7826 40.511 28.7826 39.9114V36.3758C28.7826 35.7283 28.7801 35.1641 28.7768 34.6741C28.763 32.6856 29.9296 32.5975 31.8792 32.2133C32.478 32.0953 33.056 31.8472 33.5977 31.4545C35.8916 29.7915 35.7609 26.056 33.3554 24.5294C32.8362 24.1999 32.0686 23.8724 31.6494 23.8014C29.9527 23.5146 27.964 24.5528 27.1497 26.1502C26.7731 26.889 26.7487 27.3771 26.746 34.2206C26.7452 36.651 26.8199 38.8097 26.8083 40.225C26.7991 41.3541 26.447 42.4702 25.8428 43.4238C25.4793 43.9976 24.9967 44.6557 24.4065 45.2605C23.3236 46.3703 21.356 47 18.19 47C18.0611 47 17.9936 43.2614 18.0005 36.4971C18.0123 24.8322 18.0086 24.8699 19.3795 22.0681C20.473 19.8336 22.8278 17.5167 25.1334 16.4067C28.4049 14.8314 31.676 14.5804 35.0289 15.6475Z" fill="white"/>
<defs>
<linearGradient id="paint0_linear_444_1119" x1="60" y1="60" x2="-11.3946" y2="39.2998" gradientUnits="userSpaceOnUse">
<stop stop-color="#FF575C"/>
<stop offset="1" stop-color="#FF8285"/>
</linearGradient>
</defs>
</svg>
