<svg width="32" height="25" viewBox="0 0 32 25" fill="none" xmlns="http://www.w3.org/2000/svg">
<path d="M1.00421 0.886593C0 1.77319 0 3.20014 0 6.05403V15.1351C0 17.989 0 19.4159 1.00421 20.3025C2.00841 21.1891 3.62466 21.1891 6.85714 21.1891H8.77088C11.6542 21.1891 14.3562 22.4312 16.0097 24.5166C16.2652 24.8389 16.3929 25 16.5714 25C16.7499 25 16.8777 24.8389 17.1332 24.5166C18.7867 22.4312 21.4886 21.1891 24.372 21.1891H25.1429C28.3753 21.1891 29.9916 21.1891 30.9958 20.3025C32 19.4159 32 17.989 32 15.1351V6.05404C32 3.20014 32 1.77319 30.9958 0.886593C29.9916 0 28.3753 0 25.1429 0H6.85714C3.62466 0 2.00841 0 1.00421 0.886593Z" fill="url(#paint0_linear_1029_18842)"/>
<defs>
<linearGradient id="paint0_linear_1029_18842" x1="32" y1="25" x2="-4.28101" y2="11.5352" gradientUnits="userSpaceOnUse">
<stop stop-color="#FF575C"/>
<stop offset="1" stop-color="#FF8285"/>
</linearGradient>
</defs>
</svg>
